#!OML:ASF I:\salsa\salsa 7_09\Patient 1\Session 1\dancermale.ASF
:FULLY-SPECIFIED
:DEGREES
1851
root 4.8126 16.8344 -6.84029 1087.27 -331.122 -4.84891
lowerback -7.90177 3.52633 4.76185
upperback -1.04816 4.3076 -0.396507
thorax 3.71708 2.21301 -2.59302
lowerneck -6.15431 -10.5153 -5.86474
upperneck 21.3688 -15.1497 7.02067
head 8.66133 -6.95378 1.80532
rclavicle -7.442e-014 -4.77083e-015
rhumerus 6.87563 -10.5767 -100.61
rradius 33.5091
rwrist 57.8824
rhand 25.1378 692.048
rfingers 7.12502
rthumb 49.2876 -49.5411
lclavicle -7.442e-014 -4.77083e-015
lhumerus -37.2708 -59.633 126.015
lradius 57.1931
lwrist 42.4689
lhand -19.4866 -301.166
lfingers 7.12502
lthumb 6.83541 448.704
rfemur -25.9468 -4.78831 33.7468
rtibia 34.3785
rfoot -22.9036 -20.488
rtoes 35.3526
lfemur -223.728 169.07 -183.36
ltibia 64.2057
lfoot -8.31912 6.96345
ltoes 36.9604
1852
root 4.99804 16.8428 -6.8399 1087.43 -334.168 -4.82632
lowerback -7.76775 3.77551 4.79439
upperback -0.986002 4.64456 -0.485961
thorax 3.74538 2.38265 -2.66784
lowerneck -6.35097 -10.3928 -5.55612
upperneck 21.4405 -14.9498 6.65361
head 8.65128 -6.86742 1.65131
rclavicle -1.01877e-014 -5.56597e-015
rhumerus 9.28875 -12.0575 -99.3344
rradius 28.3186
rwrist 60.3804
rhand 23.977 693.771
rfingers 7.12502
rthumb 48.2203 -48.338
lclavicle -1.01877e-014 -5.56597e-015
lhumerus -36.2498 -59.5609 124.819
lradius 57.5494
lwrist 43.0251
lhand -20.1565 -300.353
lfingers 7.12502
lthumb 6.18868 449.537
rfemur -25.4708 -4.35533 33.0639
rtibia 34.3112
rfoot -22.821 -19.3784
rtoes 33.1113
lfemur -222.917 169.95 -181.222
ltibia 59.0818
lfoot -8.52703 7.31376
ltoes 40.0929
1853
root 5.18685 16.852 -6.83639 1087.69 -337.078 -4.71323
lowerback -7.64709 4.00752 4.75215
upperback -0.979823 4.96723 -0.611524
thorax 3.71977 2.54266 -2.74211
lowerneck -6.551 -10.3294 -5.15537
upperneck 21.5303 -14.8195 6.16254
head 8.63661 -6.81798 1.4347
rclavicle 1.22004e-014 2.18663e-014
rhumerus 11.4685 -13.055 -97.9933
rradius 23.8533
rwrist 62.9999
rhand 23.8397 695.698
rfingers 7.12502
rthumb 48.0938 -46.4705
lclavicle 1.22004e-014 2.18663e-014
lhumerus -35.2246 -59.4775 123.637
lradius 58.0137
lwrist 43.3908
lhand -20.7046 -299.566
lfingers 7.12502
lthumb 5.65956 269.662
rfemur -25.1905 -4.07386 32.2386
rtibia 34.3049
rfoot -22.641 -17.9472
rtoes 31.0711
lfemur -221.836 171.205 -179.032
ltibia 53.4332
lfoot -8.33383 7.46351
ltoes 43.4323
1854
root 5.37195 16.8602 -6.82666 1088.14 -340.06 -4.66084
lowerback -7.66628 4.34265 4.67441
upperback -1.10177 5.42558 -0.737962
thorax 3.64816 2.76662 -2.77675
lowerneck -6.62835 -10.3424 -4.82562
upperneck 21.5932 -14.7859 5.6673
head 8.60286 -6.82421 1.22385
rclavicle 2.18166e-014 -8.34896e-015
rhumerus 13.4028 -13.9579 -96.5836
rradius 19.9768
rwrist 65.6064
rhand 23.4042 697.799
rfingers 7.12502
rthumb 47.6921 -44.5558
lclavicle 2.18166e-014 -8.34896e-015
lhumerus -34.2028 -59.2398 122.584
lradius 58.482
lwrist 43.38
lhand -21.1056 -298.867
lfingers 7.12502
lthumb 5.27235 268.953
rfemur -25.3016 -3.26119 31.4849
rtibia 34.5606
rfoot -22.3554 -16.497
rtoes 29.7371
lfemur -220.674 172.231 -176.806
ltibia 47.6248
lfoot -6.68112 6.77923
ltoes 45.2056
1855
root 5.56737 16.872 -6.81265 1088.51 -342.408 -4.68448
lowerback -7.79545 4.56877 4.79302
upperback -1.17125 5.71509 -0.851559
thorax 3.6961 2.91225 -2.91621
lowerneck -6.67801 -10.4126 -4.6048
upperneck 21.5523 -14.843 5.32278
head 8.55519 -6.87081 1.07142
rclavicle -6.48535e-015 1.07344e-014
rhumerus 14.9854 -13.1404 -94.3616
rradius 16.824
rwrist 66.4019
rhand 22.8113 699.768
rfingers 7.12502
rthumb 47.1445 -42.8345
lclavicle -6.48535e-015 1.07344e-014
lhumerus -33.117 -59.4148 121.608
lradius 59.0605
lwrist 43.1283
lhand -21.633 -298.385
lfingers 7.12502
lthumb 4.76313 268.458
rfemur -25.431 -2.58079 30.7678
rtibia 34.8062
rfoot -22.1901 -15.3004
rtoes 28.769
lfemur -219.517 173.926 -174.491
ltibia 41.5353
lfoot -3.59124 4.94478
ltoes 45.6519
1856
root 5.77713 16.8891 -6.79588 1088.8 -344.094 -4.7628
lowerback -7.93232 4.66468 5.09847
upperback -1.19387 5.81252 -0.931338
thorax 3.79622 2.96669 -3.14469
lowerneck -6.74398 -10.5543 -4.5503
upperneck 21.4814 -15.0361 5.25724
head 8.54409 -6.9676 1.01742
rclavicle 1.84621e-014 -1.07344e-014
rhumerus 15.6015 -7.18516 -89.7912
rradius 15.0156
rwrist 62.3854
rhand 23.3432 701.392
rfingers 7.12502
rthumb 47.6359 -40.9887
lclavicle 1.84621e-014 -1.07344e-014
lhumerus -31.8208 -59.8459 120.654
lradius 59.5852
lwrist 42.5282
lhand -21.434 -297.983
lfingers 7.12502
lthumb 4.9553 268.061
rfemur -25.3513 -2.05883 30.0397
rtibia 34.7299
rfoot -22.0885 -14.5258
rtoes 27.918
lfemur -218.449 176.235 -172.249
ltibia 35.559
lfoot -0.616898 3.57389
ltoes 45.9888
1857
root 5.99264 16.9087 -6.77411 1088.97 -345.658 -4.79669
lowerback -7.91401 4.77209 5.31006
upperback -1.21057 5.93942 -0.958681
thorax 3.80523 3.03263 -3.27509
lowerneck -6.75986 -10.7775 -4.75533
upperneck 21.357 -15.3759 5.51477
head 8.56287 -7.12478 1.09174
rclavicle -4.31363e-014 3.1408e-014
rhumerus 15.5458 4.19907 -82.7744
rradius 15.238
rwrist 53.3485
rhand 25.2251 702.842
rfingers 7.12502
rthumb 49.3677 -38.7069
lclavicle -4.31363e-014 3.1408e-014
lhumerus -30.5276 -60.5768 119.951
lradius 60.1341
lwrist 42.2835
lhand -21.5787 -297.416
lfingers 7.12502
lthumb 4.81554 267.49
rfemur -25.0198 -1.22154 29.1914
rtibia 34.4335
rfoot -21.9968 -14.0311
rtoes 27.2094
lfemur -217.11 178.855 -170.133
ltibia 29.436
lfoot 2.3628 2.73414
ltoes 46.434
1858
root 6.21518 16.9233 -6.74323 1088.9 -347.244 -4.65991
lowerback -7.66649 4.90562 5.34439
upperback -1.16369 6.12778 -0.971722
thorax 3.74042 3.1265 -3.3007
lowerneck -6.6793 -11.0024 -5.03576
upperneck 21.1307 -15.6942 5.74565
head 8.53389 -7.28554 1.17839
rclavicle -2.76808e-014 2.46493e-014
rhumerus 15.9874 21.7093 -72.2996
rradius 18.2336
rwrist 37.3644
rhand 27.3512 703.423
rfingers 7.12502
rthumb 51.3105 -37.0836
lclavicle -2.76808e-014 2.46493e-014
lhumerus -29.2196 -61.3676 119.422
lradius 60.6829
lwrist 42.146
lhand -21.9044 -296.987
lfingers 7.12502
lthumb 4.50112 267.055
rfemur -24.3311 -0.366946 28.08
rtibia 34.0379
rfoot -21.9183 -13.5063
rtoes 26.2819
lfemur -215.481 181.366 -168.681
ltibia 23.9427
lfoot 5.26626 5.02495
ltoes 47.4784
1859
root 6.43991 16.9269 -6.70008 1088.74 -348.963 -4.41894
lowerback -7.44307 5.11691 5.28511
upperback -1.06407 6.42642 -1.02366
thorax 3.7499 3.27671 -3.29672
lowerneck -6.63974 -11.2333 -5.1076
upperneck 20.938 -15.9741 5.63575
head 8.47491 -7.44229 1.12743
rclavicle 9.46712e-015 -1.59028e-015
rhumerus 18.5362 35.4803 -61.6336
rradius 21.6635
rwrist 24.8426
rhand 28.4687 704.392
rfingers 7.12502
rthumb 52.3251 -35.5183
lclavicle 9.46712e-015 -1.59028e-015
lhumerus -27.7198 -62.1524 118.791
lradius 61.0866
lwrist 41.591
lhand -21.8698 -296.976
lfingers 7.12502
lthumb 4.53451 267.044
rfemur -23.7302 0.464445 26.8184
rtibia 33.9936
rfoot -22.014 -12.9266
rtoes 24.8209
lfemur -213.851 183.054 -168.058
ltibia 19.3751
lfoot 8.3233 10.1703
ltoes 49.196
1860
root 6.66638 16.9274 -6.65067 1088.67 -350.783 -4.34128
lowerback -7.41913 5.43966 5.39654
upperback -0.963138 6.84721 -1.04901
thorax 3.90075 3.49228 -3.32483
lowerneck -6.69582 -11.5171 -5.08214
upperneck 20.7682 -16.3051 5.36933
head 8.42123 -7.62679 1.00096
rclavicle 4.07509e-014 2.14687e-014
rhumerus 23.4578 45.4766 -50.3259
rradius 24.5789
rwrist 15.2046
rhand 28.8147 704.93
rfingers 7.12502
rthumb 52.6382 -34.7892
lclavicle 4.07509e-014 2.14687e-014
lhumerus -26.064 -62.9088 118.127
lradius 61.4764
lwrist 40.828
lhand -21.9871 -296.762
lfingers 7.12502
lthumb 4.4212 266.828
rfemur -23.5387 1.32589 25.7433
rtibia 34.38
rfoot -22.2182 -12.3632
rtoes 22.9076
lfemur -212.382 184.087 -167.69
ltibia 15.9053
lfoot 11.3376 14.5163
ltoes 50.0138
